<svg xmlns="http://www.w3.org/2000/svg" width="32" height="31"><defs><symbol viewBox="65 0 128 128" id="clock"><path fill-rule="evenodd" fill="#95E1D3" id="clock" d="M30.74 9.503a15.723 15.723 0 0 0-8.243-8.243c1-.787 2.258-1.26 3.629-1.26A5.874 5.874 0 0 1 32 5.874a5.846 5.846 0 0 1-1.26 3.629zM30.5 16c0 3.852-1.512 7.343-3.963 9.94l2.029 2.028a1.483 1.483 0 1 1-2.098 2.097l-2.178-2.178A14.426 14.426 0 0 1 16 30.5c-3.079 0-5.928-.966-8.276-2.603L5.561 30.06a1.5 1.5 0 0 1-2.122-2.121l2.012-2.012C3.008 23.332 1.5 19.845 1.5 16 1.5 7.992 7.992 1.5 16 1.5S30.5 7.992 30.5 16zM16 4.5C9.649 4.5 4.5 9.648 4.5 16c0 6.351 5.149 11.5 11.5 11.5S27.5 22.351 27.5 16c0-6.352-5.149-11.5-11.5-11.5zm6 13h-6a1.5 1.5 0 0 1-1.5-1.5V8a1.5 1.5 0 0 1 3 0v6.499H22a1.5 1.5 0 0 1 0 3.001zM1.287 9.705A5.964 5.964 0 0 1 0 6a6 6 0 0 1 6-6c1.4 0 2.685.483 3.706 1.287a16.057 16.057 0 0 0-8.419 8.418z"/></symbol></defs><defs><symbol viewBox="65 0 128 128" id="graph"><path fill-rule="evenodd" fill="#95E1D3" d="M30.5 32h-29A1.5 1.5 0 0 1 0 30.5V1.499A1.5 1.5 0 0 1 1.5 0h29A1.5 1.5 0 0 1 32 1.499V30.5a1.5 1.5 0 0 1-1.5 1.5zM29 3H3v26h26V3zM5.215 16.239v-.002l4-2.5v.002a1.497 1.497 0 0 1 1.625.035l.006-.008 6.631 4.42 7.638-5.391a1.5 1.5 0 0 1 1.763 2.426h.001l-8.5 6h-.001c-.246.179-.55.284-.878.284-.321 0-.618-.101-.861-.272l-6.657-4.438-3.135 1.96a1.5 1.5 0 0 1-1.632-2.516z"/></symbol></defs><defs><symbol viewBox="65 0 128 128" id="computer"><path fill-rule="evenodd" fill="#95E1D3" d="M30 23h-9.5v2.499l2 2.001v.5h-13v-.5l2-2.001V23H2a1.5 1.5 0 0 1-1.5-1.501V1.5A1.5 1.5 0 0 1 2 0h28a1.5 1.5 0 0 1 1.5 1.5v19.999A1.5 1.5 0 0 1 30 23zm-.5-21h-27v17h27V2zM13 9c.414 0 .789.168 1.061.439l.939.939 2.939-2.939a1.5 1.5 0 1 1 2.122 2.122l-4 4a1.499 1.499 0 0 1-2.122 0l-2-2.001A1.5 1.5 0 0 1 13 9z"/></symbol></defs><defs><symbol viewBox="65 0 128 128" id="book"><path fill-rule="evenodd" fill="#95E1D3" d="M31.065 25.889l-14.471 5.988a1.489 1.489 0 0 1-1.188 0L.935 25.889A1.5 1.5 0 0 1 0 24.5v-23A1.5 1.5 0 0 1 2.073.114h.001l.002.001.013.005L16 5.876 29.911.12l.013-.005.003-.001A1.5 1.5 0 0 1 32 1.5v23a1.5 1.5 0 0 1-.935 1.389zM14.5 8.503L3 3.744v19.753l11.5 4.759V8.503zM29 3.744L17.5 8.503v19.753L29 23.497V3.744zm-9.121 6.89l5.5-2.5a1.5 1.5 0 0 1 1.242 2.731l-5.5 2.5a1.5 1.5 0 0 1-1.242-2.731zm0 5.5l5.5-2.5a1.5 1.5 0 0 1 1.242 2.731l-5.5 2.5a1.5 1.5 0 0 1-1.242-2.731zm0 5.5l5.5-2.5a1.5 1.5 0 0 1 1.242 2.731l-5.5 2.5a1.5 1.5 0 0 1-1.242-2.731zM6 8c.221 0 .431.048.621.134l5.5 2.5a1.501 1.501 0 0 1-1.242 2.731l-5.5-2.5A1.5 1.5 0 0 1 6 8zm0 5.5c.221 0 .431.048.621.134l5.5 2.5a1.501 1.501 0 0 1-1.242 2.731l-5.5-2.5A1.5 1.5 0 0 1 6 13.5zM6 19c.221 0 .431.048.621.134l5.5 2.5a1.501 1.501 0 0 1-1.242 2.731l-5.5-2.5A1.5 1.5 0 0 1 6 19z"/></symbol></defs><defs><symbol viewBox="65 0 128 128" id="home"><path fill-rule="evenodd" fill="#95E1D3" d="M32 16.5a1.5 1.5 0 0 1-1.5 1.499 1.49 1.49 0 0 1-1.02-.405l-.003.004L16.038 4.159 16 4.122 2.554 17.568h-.001a1.5 1.5 0 1 1-2.092-2.149L14.919.96C15.192.677 15.575.5 16 .5h.001c.026 0 .052 0 .079.002l.012.001.068.005.004.001c.367.04.694.212.933.468l.001-.001L23 6.878V5.5a1.5 1.5 0 1 1 3 0v4.378l5.598 5.598-.004.004c.25.268.406.625.406 1.02zM29 19v10.5a1.5 1.5 0 0 1-1.5 1.5h-3V19h-6v12h-14A1.5 1.5 0 0 1 3 29.5V19L16 6l13 13zm-15.5 0h-6v6h6v-6z"/></symbol></defs><defs><symbol viewBox="65 0 128 128" id="image"><path fill-rule="evenodd" fill="#95E1D3" d="M30.5 32h-29A1.5 1.5 0 0 1 0 30.5v-29A1.5 1.5 0 0 1 1.5 0h29A1.5 1.5 0 0 1 32 1.5v29a1.5 1.5 0 0 1-1.5 1.5zM29 3H3v26h26V3zM6.5 4.5H12a1.5 1.5 0 1 1 0 3H7.5V12a1.5 1.5 0 0 1-3 0V4.5h2zM4.5 20a1.5 1.5 0 1 1 3 0v4.499H12v.001a1.5 1.5 0 1 1 0 3H4.5V20zM20 4.5h7.5V12a1.5 1.5 0 0 1-3 0V7.5H20a1.5 1.5 0 0 1 0-3zm0 20v-.001h4.5V20a1.5 1.5 0 1 1 3 0v7.5H20a1.5 1.5 0 0 1 0-3z"/></symbol></defs></svg>